<svg width="300" height="300" viewBox="0 0 300 300" fill="none" xmlns="http://www.w3.org/2000/svg">
<path d="M0 7.99999C0 3.58171 3.58172 0 8 0H292C296.418 0 300 3.58172 300 8V292C300 296.418 296.418 300 292 300H7.99999C3.58171 300 0 296.418 0 292V7.99999Z" fill="black"/>
<path d="M56.86 159.06C56.86 157.94 57.26 157.06 58.06 156.42C58.9 155.78 60.1 155.16 61.66 154.56L73.12 149.16C75.32 148.16 76.4 147.66 76.36 147.66L78.28 146.7C79.16 146.22 79.9 145.86 80.5 145.62C81.14 145.38 81.82 145.26 82.54 145.26C83.3 145.26 83.88 145.54 84.28 146.1C84.68 146.66 84.88 147.32 84.88 148.08C84.88 148.88 84.66 149.48 84.22 149.88C83.82 150.28 83.28 150.66 82.6 151.02C81.96 151.38 81.46 151.66 81.1 151.86L72.46 155.52L64.54 158.82C66.66 159.62 68.8 160.36 70.96 161.04C73.12 161.68 75.74 162.44 78.82 163.32C81.1 163.96 82.6 164.4 83.32 164.64C84.08 164.88 84.64 165.3 85 165.9C85.36 166.46 85.54 167.04 85.54 167.64C85.54 168.44 85.26 169.14 84.7 169.74C84.18 170.34 83.56 170.64 82.84 170.64C82.28 170.64 81.46 170.4 80.38 169.92C79.26 169.52 78.5 169.26 78.1 169.14C75.1 168.26 71.04 166.8 65.92 164.76C65.08 164.44 64.24 164.14 63.4 163.86C62.6 163.54 61.9 163.28 61.3 163.08C60.1 162.68 59.06 162.12 58.18 161.4C57.3 160.68 56.86 159.9 56.86 159.06Z" fill="#2B8B3E"/>
<path d="M102.125 136.02C102.125 134.3 103.385 133.44 105.905 133.44C106.985 133.44 109.045 133.48 112.085 133.56C115.445 133.72 117.985 133.8 119.705 133.8C121.105 133.8 122.805 133.72 124.805 133.56C126.165 133.48 127.025 133.44 127.385 133.44C129.585 133.52 131.445 133.92 132.965 134.64C133.405 134.84 133.765 135.08 134.045 135.36C134.325 135.64 134.465 136.1 134.465 136.74C134.465 137.62 134.185 138.38 133.625 139.02C133.065 139.62 132.385 139.92 131.585 139.92C130.705 139.92 129.425 139.8 127.745 139.56C126.265 139.28 124.965 139.14 123.845 139.14C122.765 139.14 121.945 139.16 121.385 139.2C121.265 140.52 121.205 143.68 121.205 148.68C121.205 154.64 121.385 160.68 121.745 166.8L121.865 168.54C121.865 170.18 120.925 171 119.045 171C117.565 171 116.565 170.66 116.045 169.98C115.525 169.26 115.265 168.18 115.265 166.74C115.265 163.9 115.185 160.36 115.025 156.12C114.865 152.6 114.785 150.1 114.785 148.62C114.785 147.62 114.905 144.56 115.145 139.44L108.125 139.5C105.885 139.5 104.325 139.3 103.445 138.9C102.565 138.46 102.125 137.5 102.125 136.02Z" fill="#2B8B3E"/>
<path d="M165.878 149.52C165.838 148.88 165.818 147.92 165.818 146.64V144.36C165.818 142.84 165.778 141.7 165.698 140.94C165.618 140.3 165.578 138.64 165.578 135.96C165.578 135 165.858 134.26 166.418 133.74C167.018 133.18 167.818 132.9 168.818 132.9C170.098 132.9 170.958 133.18 171.398 133.74C171.838 134.3 172.058 135.22 172.058 136.5V138.78L171.998 145.38C171.958 146.66 171.938 148.58 171.938 151.14L171.998 156.06C172.038 156.82 172.058 157.88 172.058 159.24C172.058 160.32 172.098 161.86 172.178 163.86C172.258 165.7 172.298 167.08 172.298 168C172.298 168.76 172.078 169.46 171.638 170.1C171.238 170.74 170.678 171.06 169.958 171.06C167.158 171.06 165.758 170.12 165.758 168.24C165.758 167.2 165.798 166.04 165.878 164.76C165.958 163.84 165.998 162.44 165.998 160.56C165.998 159.24 165.958 157.34 165.878 154.86C163.998 155.02 160.758 155.1 156.158 155.1C153.278 155.1 151.038 155.1 149.438 155.1C147.838 155.06 146.678 154.96 145.958 154.8L145.898 161.7C145.898 162.14 145.998 163.32 146.198 165.24C146.398 166.52 146.498 167.64 146.498 168.6C146.498 169.2 146.138 169.78 145.418 170.34C144.738 170.86 144.098 171.12 143.498 171.12C142.058 171.12 141.078 170.78 140.558 170.1C140.038 169.38 139.778 168.3 139.778 166.86L139.718 162.12C139.678 161.56 139.658 160.78 139.658 159.78C139.658 158.3 139.618 156.28 139.538 153.72C139.458 151.4 139.418 149.72 139.418 148.68C139.418 147.12 139.458 144.94 139.538 142.14C139.618 139.5 139.658 137.54 139.658 136.26C139.658 134.98 139.978 134.12 140.618 133.68C141.258 133.24 141.978 133.02 142.778 133.02C145.018 133.02 146.138 133.76 146.138 135.24C146.138 137.88 146.078 140.4 145.958 142.8C145.878 145.84 145.838 148.06 145.838 149.46C146.998 149.74 148.218 149.92 149.498 150C150.778 150.08 152.578 150.12 154.898 150.12C159.618 150.12 163.278 149.92 165.878 149.52Z" fill="#2B8B3E"/>
<path d="M205.561 162.84C206.321 162.84 206.881 163.14 207.241 163.74C207.641 164.3 207.841 164.92 207.841 165.6C207.841 166.44 207.701 167.04 207.421 167.4C207.181 167.72 206.701 168.06 205.981 168.42C204.301 169.22 202.221 169.86 199.741 170.34C197.261 170.82 194.601 171.06 191.761 171.06C188.201 171.06 185.581 170.46 183.901 169.26C182.261 168.06 181.241 166.62 180.841 164.94C180.481 163.22 180.301 160.98 180.301 158.22C180.301 155.26 180.421 152.36 180.661 149.52C180.901 146.64 181.321 142.98 181.921 138.54C182.201 136.62 182.961 135.24 184.201 134.4C185.441 133.52 186.801 133.08 188.281 133.08C189.521 133.08 191.541 133.04 194.341 132.96L199.561 132.9C201.721 132.9 203.281 132.96 204.241 133.08C205.441 133.32 206.321 133.6 206.881 133.92C207.481 134.2 207.781 134.7 207.781 135.42C207.781 136.22 207.501 137 206.941 137.76C206.421 138.52 205.621 138.9 204.541 138.9C203.301 138.9 201.521 138.82 199.201 138.66C196.881 138.5 195.141 138.42 193.981 138.42C192.981 138.42 192.001 138.48 191.041 138.6C189.921 138.68 189.121 138.82 188.641 139.02C188.161 139.22 187.881 139.56 187.801 140.04C187.241 144.16 186.961 147.2 186.961 149.16C187.881 149.28 188.781 149.34 189.661 149.34C190.781 149.34 191.981 149.28 193.261 149.16C194.541 149.04 195.361 148.96 195.721 148.92C197.841 148.72 199.661 148.62 201.181 148.62C202.061 148.62 202.721 148.78 203.161 149.1C203.641 149.42 203.881 149.86 203.881 150.42C203.881 151.3 203.641 151.98 203.161 152.46C202.721 152.94 201.921 153.3 200.761 153.54C199.361 153.82 197.621 154.04 195.541 154.2C193.501 154.36 191.501 154.44 189.541 154.44C188.861 154.44 187.921 154.4 186.721 154.32C186.601 156.76 186.541 159.02 186.541 161.1C186.541 163.94 188.421 165.36 192.181 165.36C194.181 165.36 195.841 165.22 197.161 164.94C198.481 164.66 200.001 164.26 201.721 163.74C203.321 163.14 204.601 162.84 205.561 162.84Z" fill="#2B8B3E"/>
<path d="M245.663 132.48C246.303 132.48 246.823 132.66 247.223 133.02C247.623 133.34 247.823 133.74 247.823 134.22C247.823 134.66 247.723 135.06 247.523 135.42C246.203 137.5 245.063 139.44 244.103 141.24C243.143 143.04 241.943 145.38 240.503 148.26C239.943 149.38 239.043 151.16 237.803 153.6C237.203 154.76 236.343 156.66 235.223 159.3C233.583 162.98 232.243 165.78 231.203 167.7C229.963 170.1 228.543 171.3 226.943 171.3C224.903 171.3 223.883 170.58 223.883 169.14C223.883 168.58 224.063 168.06 224.423 167.58C226.583 164.42 228.423 161.36 229.943 158.4C231.503 155.4 233.183 151.9 234.983 147.9C237.023 143.34 238.743 139.78 240.143 137.22C240.823 135.86 241.543 134.74 242.303 133.86C243.103 132.94 244.223 132.48 245.663 132.48Z" fill="#2B8B3E"/>
<path d="M279.557 159.06C279.557 159.9 279.117 160.68 278.237 161.4C277.397 162.12 276.377 162.68 275.177 163.08C274.897 163.16 273.237 163.76 270.197 164.88C264.797 166.96 260.857 168.38 258.377 169.14C257.497 169.38 256.717 169.66 256.037 169.98C254.877 170.42 254.057 170.64 253.577 170.64C252.897 170.64 252.277 170.34 251.717 169.74C251.157 169.1 250.877 168.4 250.877 167.64C250.877 167.04 251.057 166.46 251.417 165.9C251.777 165.3 252.357 164.88 253.157 164.64C253.877 164.4 255.377 163.96 257.657 163.32C260.737 162.44 263.357 161.68 265.517 161.04C267.677 160.36 269.817 159.62 271.937 158.82L264.017 155.52L255.377 151.86C255.017 151.66 254.457 151.36 253.697 150.96C252.937 150.56 252.397 150.14 252.077 149.7C251.757 149.26 251.597 148.72 251.597 148.08C251.597 147.32 251.797 146.66 252.197 146.1C252.597 145.54 253.177 145.26 253.937 145.26C254.617 145.26 255.237 145.38 255.797 145.62C256.357 145.82 257.177 146.18 258.257 146.7C259.177 147.22 259.777 147.54 260.057 147.66L274.817 154.56C276.377 155.16 277.557 155.78 278.357 156.42C279.157 157.06 279.557 157.94 279.557 159.06Z" fill="#2B8B3E"/>
<path d="M25.86 86.06C25.86 84.94 26.26 84.06 27.06 83.42C27.9 82.78 29.1 82.16 30.66 81.56L42.12 76.16C44.32 75.16 45.4 74.66 45.36 74.66L47.28 73.7C48.16 73.22 48.9 72.86 49.5 72.62C50.14 72.38 50.82 72.26 51.54 72.26C52.3 72.26 52.88 72.54 53.28 73.1C53.68 73.66 53.88 74.32 53.88 75.08C53.88 75.88 53.66 76.48 53.22 76.88C52.82 77.28 52.28 77.66 51.6 78.02C50.96 78.38 50.46 78.66 50.1 78.86L41.46 82.52L33.54 85.82C35.66 86.62 37.8 87.36 39.96 88.04C42.12 88.68 44.74 89.44 47.82 90.32C50.1 90.96 51.6 91.4 52.32 91.64C53.08 91.88 53.64 92.3 54 92.9C54.36 93.46 54.54 94.04 54.54 94.64C54.54 95.44 54.26 96.14 53.7 96.74C53.18 97.34 52.56 97.64 51.84 97.64C51.28 97.64 50.46 97.4 49.38 96.92C48.26 96.52 47.5 96.26 47.1 96.14C44.1 95.26 40.04 93.8 34.92 91.76C34.08 91.44 33.24 91.14 32.4 90.86C31.6 90.54 30.9 90.28 30.3 90.08C29.1 89.68 28.06 89.12 27.18 88.4C26.3 87.68 25.86 86.9 25.86 86.06Z" fill="#391585"/>
<path d="M83.3648 59.96C88.8048 59.96 93.1048 60.72 96.2648 62.24C99.4648 63.72 101.885 65.38 103.525 67.22C104.845 68.74 105.925 70.5 106.765 72.5C107.605 74.46 108.025 76.82 108.025 79.58C108.025 81.62 107.565 83.76 106.645 86C105.725 88.2 104.525 89.98 103.045 91.34C101.485 92.82 100.005 94.02 98.6048 94.94C97.2448 95.86 95.3848 96.62 93.0248 97.22C90.7048 97.78 87.7448 98.06 84.1448 98.06C81.4248 98.06 78.9648 97.76 76.7648 97.16C74.5648 96.52 73.4648 95.46 73.4648 93.98C73.4648 93.38 73.7248 92.92 74.2448 92.6C74.8048 92.24 75.4048 92.06 76.0448 92.06C76.4048 92.06 76.6448 92.08 76.7648 92.12C77.0448 89.48 77.1848 86.68 77.1848 83.72C77.1848 80.4 77.1048 77.66 76.9448 75.5C76.7848 73.3 76.5648 71.12 76.2848 68.96C76.2448 68.68 76.1448 67.9 75.9848 66.62C75.8648 65.34 75.8048 64.04 75.8048 62.72C75.8048 61.88 76.2248 61.18 77.0648 60.62C77.9048 60.02 78.7648 59.72 79.6448 59.72C80.1648 59.72 80.8648 59.76 81.7448 59.84C82.4648 59.92 83.0048 59.96 83.3648 59.96ZM82.5848 92.42C83.5448 92.58 84.8048 92.66 86.3648 92.66C89.0048 92.66 91.5048 92.12 93.8648 91.04C96.2248 89.92 98.1248 88.38 99.5648 86.42C101.005 84.42 101.725 82.12 101.725 79.52C101.725 76.8 101.245 74.48 100.285 72.56C99.3248 70.64 97.8448 69.06 95.8448 67.82C94.3648 66.9 92.5448 66.24 90.3848 65.84C88.2248 65.4 85.6248 65.18 82.5848 65.18C82.5848 66.14 82.6448 67.34 82.7648 68.78C82.7648 69.26 82.8048 70.1 82.8848 71.3C83.1248 75.94 83.2448 79.68 83.2448 82.52C83.2448 86.64 83.0248 89.94 82.5848 92.42Z" fill="#391585"/>
<path d="M139.111 89.84C139.871 89.84 140.431 90.14 140.791 90.74C141.191 91.3 141.391 91.92 141.391 92.6C141.391 93.44 141.251 94.04 140.971 94.4C140.731 94.72 140.251 95.06 139.531 95.42C137.851 96.22 135.771 96.86 133.291 97.34C130.811 97.82 128.151 98.06 125.311 98.06C121.751 98.06 119.131 97.46 117.451 96.26C115.811 95.06 114.791 93.62 114.391 91.94C114.031 90.22 113.851 87.98 113.851 85.22C113.851 82.26 113.971 79.36 114.211 76.52C114.451 73.64 114.871 69.98 115.471 65.54C115.751 63.62 116.511 62.24 117.751 61.4C118.991 60.52 120.351 60.08 121.831 60.08C123.071 60.08 125.091 60.04 127.891 59.96L133.111 59.9C135.271 59.9 136.831 59.96 137.791 60.08C138.991 60.32 139.871 60.6 140.431 60.92C141.031 61.2 141.331 61.7 141.331 62.42C141.331 63.22 141.051 64 140.491 64.76C139.971 65.52 139.171 65.9 138.091 65.9C136.851 65.9 135.071 65.82 132.751 65.66C130.431 65.5 128.691 65.42 127.531 65.42C126.531 65.42 125.551 65.48 124.591 65.6C123.471 65.68 122.671 65.82 122.191 66.02C121.711 66.22 121.431 66.56 121.351 67.04C120.791 71.16 120.511 74.2 120.511 76.16C121.431 76.28 122.331 76.34 123.211 76.34C124.331 76.34 125.531 76.28 126.811 76.16C128.091 76.04 128.911 75.96 129.271 75.92C131.391 75.72 133.211 75.62 134.731 75.62C135.611 75.62 136.271 75.78 136.711 76.1C137.191 76.42 137.431 76.86 137.431 77.42C137.431 78.3 137.191 78.98 136.711 79.46C136.271 79.94 135.471 80.3 134.311 80.54C132.911 80.82 131.171 81.04 129.091 81.2C127.051 81.36 125.051 81.44 123.091 81.44C122.411 81.44 121.471 81.4 120.271 81.32C120.151 83.76 120.091 86.02 120.091 88.1C120.091 90.94 121.971 92.36 125.731 92.36C127.731 92.36 129.391 92.22 130.711 91.94C132.031 91.66 133.551 91.26 135.271 90.74C136.871 90.14 138.151 89.84 139.111 89.84Z" fill="#391585"/>
<path d="M150.977 61.7C152.457 66.1 154.137 70.94 156.017 76.22C157.897 81.46 159.617 86 161.177 89.84C162.337 86.12 163.937 81.66 165.977 76.46C168.017 71.22 169.917 66.5 171.677 62.3C172.197 61.06 173.077 60.44 174.317 60.44C175.477 60.44 176.357 60.68 176.957 61.16C177.557 61.6 177.857 62.38 177.857 63.5C177.857 63.94 177.797 64.32 177.677 64.64C177.557 64.96 177.377 65.38 177.137 65.9C175.897 68.34 174.657 71.16 173.417 74.36C172.177 77.52 170.657 81.54 168.857 86.42C168.937 86.22 168.377 87.72 167.177 90.92L165.197 96.08C164.957 96.72 164.557 97.22 163.997 97.58C163.477 97.9 162.877 98.06 162.197 98.06C161.517 98.06 160.757 97.9 159.917 97.58C159.117 97.22 158.537 96.86 158.177 96.5C156.817 93.9 155.077 90.14 152.957 85.22C150.877 80.3 149.077 75.76 147.557 71.6L146.657 69.14C146.057 67.46 145.617 66.18 145.337 65.3C145.057 64.38 144.917 63.64 144.917 63.08C144.917 62.28 145.357 61.64 146.237 61.16C147.157 60.68 148.037 60.44 148.877 60.44C149.317 60.44 149.737 60.54 150.137 60.74C150.537 60.94 150.817 61.26 150.977 61.7Z" fill="#391585"/>
<path d="M223.185 86.06C223.185 86.9 222.745 87.68 221.865 88.4C221.025 89.12 220.005 89.68 218.805 90.08C218.525 90.16 216.865 90.76 213.825 91.88C208.425 93.96 204.485 95.38 202.005 96.14C201.125 96.38 200.345 96.66 199.665 96.98C198.505 97.42 197.685 97.64 197.205 97.64C196.525 97.64 195.905 97.34 195.345 96.74C194.785 96.1 194.505 95.4 194.505 94.64C194.505 94.04 194.685 93.46 195.045 92.9C195.405 92.3 195.985 91.88 196.785 91.64C197.505 91.4 199.005 90.96 201.285 90.32C204.365 89.44 206.985 88.68 209.145 88.04C211.305 87.36 213.445 86.62 215.565 85.82L207.645 82.52L199.005 78.86C198.645 78.66 198.085 78.36 197.325 77.96C196.565 77.56 196.025 77.14 195.705 76.7C195.385 76.26 195.225 75.72 195.225 75.08C195.225 74.32 195.425 73.66 195.825 73.1C196.225 72.54 196.805 72.26 197.565 72.26C198.245 72.26 198.865 72.38 199.425 72.62C199.985 72.82 200.805 73.18 201.885 73.7C202.805 74.22 203.405 74.54 203.685 74.66L218.445 81.56C220.005 82.16 221.185 82.78 221.985 83.42C222.785 84.06 223.185 84.94 223.185 86.06Z" fill="#391585"/>
<path d="M25.86 233.06C25.86 231.94 26.26 231.06 27.06 230.42C27.9 229.78 29.1 229.16 30.66 228.56L42.12 223.16C44.32 222.16 45.4 221.66 45.36 221.66L47.28 220.7C48.16 220.22 48.9 219.86 49.5 219.62C50.14 219.38 50.82 219.26 51.54 219.26C52.3 219.26 52.88 219.54 53.28 220.1C53.68 220.66 53.88 221.32 53.88 222.08C53.88 222.88 53.66 223.48 53.22 223.88C52.82 224.28 52.28 224.66 51.6 225.02C50.96 225.38 50.46 225.66 50.1 225.86L41.46 229.52L33.54 232.82C35.66 233.62 37.8 234.36 39.96 235.04C42.12 235.68 44.74 236.44 47.82 237.32C50.1 237.96 51.6 238.4 52.32 238.64C53.08 238.88 53.64 239.3 54 239.9C54.36 240.46 54.54 241.04 54.54 241.64C54.54 242.44 54.26 243.14 53.7 243.74C53.18 244.34 52.56 244.64 51.84 244.64C51.28 244.64 50.46 244.4 49.38 243.92C48.26 243.52 47.5 243.26 47.1 243.14C44.1 242.26 40.04 240.8 34.92 238.76C34.08 238.44 33.24 238.14 32.4 237.86C31.6 237.54 30.9 237.28 30.3 237.08C29.1 236.68 28.06 236.12 27.18 235.4C26.3 234.68 25.86 233.9 25.86 233.06Z" fill="#391585"/>
<path d="M79.4283 206.48C80.0683 206.48 80.5883 206.66 80.9883 207.02C81.3883 207.34 81.5883 207.74 81.5883 208.22C81.5883 208.66 81.4883 209.06 81.2883 209.42C79.9683 211.5 78.8283 213.44 77.8683 215.24C76.9083 217.04 75.7083 219.38 74.2683 222.26C73.7083 223.38 72.8083 225.16 71.5683 227.6C70.9683 228.76 70.1083 230.66 68.9883 233.3C67.3483 236.98 66.0083 239.78 64.9683 241.7C63.7283 244.1 62.3083 245.3 60.7083 245.3C58.6683 245.3 57.6483 244.58 57.6483 243.14C57.6483 242.58 57.8283 242.06 58.1883 241.58C60.3483 238.42 62.1883 235.36 63.7083 232.4C65.2683 229.4 66.9483 225.9 68.7483 221.9C70.7883 217.34 72.5083 213.78 73.9083 211.22C74.5883 209.86 75.3083 208.74 76.0683 207.86C76.8683 206.94 77.9883 206.48 79.4283 206.48Z" fill="#391585"/>
<path d="M108.619 206.96C114.059 206.96 118.359 207.72 121.519 209.24C124.719 210.72 127.139 212.38 128.779 214.22C130.099 215.74 131.179 217.5 132.019 219.5C132.859 221.46 133.279 223.82 133.279 226.58C133.279 228.62 132.819 230.76 131.899 233C130.979 235.2 129.779 236.98 128.299 238.34C126.739 239.82 125.259 241.02 123.859 241.94C122.499 242.86 120.639 243.62 118.279 244.22C115.959 244.78 112.999 245.06 109.399 245.06C106.679 245.06 104.219 244.76 102.019 244.16C99.8188 243.52 98.7188 242.46 98.7188 240.98C98.7188 240.38 98.9787 239.92 99.4987 239.6C100.059 239.24 100.659 239.06 101.299 239.06C101.659 239.06 101.899 239.08 102.019 239.12C102.299 236.48 102.439 233.68 102.439 230.72C102.439 227.4 102.359 224.66 102.199 222.5C102.039 220.3 101.819 218.12 101.539 215.96C101.499 215.68 101.399 214.9 101.239 213.62C101.119 212.34 101.059 211.04 101.059 209.72C101.059 208.88 101.479 208.18 102.319 207.62C103.159 207.02 104.019 206.72 104.899 206.72C105.419 206.72 106.119 206.76 106.999 206.84C107.719 206.92 108.259 206.96 108.619 206.96ZM107.839 239.42C108.799 239.58 110.059 239.66 111.619 239.66C114.259 239.66 116.759 239.12 119.119 238.04C121.479 236.92 123.379 235.38 124.819 233.42C126.259 231.42 126.979 229.12 126.979 226.52C126.979 223.8 126.499 221.48 125.539 219.56C124.579 217.64 123.099 216.06 121.099 214.82C119.619 213.9 117.799 213.24 115.639 212.84C113.479 212.4 110.879 212.18 107.839 212.18C107.839 213.14 107.899 214.34 108.019 215.78C108.019 216.26 108.059 217.1 108.139 218.3C108.379 222.94 108.499 226.68 108.499 229.52C108.499 233.64 108.279 236.94 107.839 239.42Z" fill="#391585"/>
<path d="M164.365 236.84C165.125 236.84 165.685 237.14 166.045 237.74C166.445 238.3 166.645 238.92 166.645 239.6C166.645 240.44 166.505 241.04 166.225 241.4C165.985 241.72 165.505 242.06 164.785 242.42C163.105 243.22 161.025 243.86 158.545 244.34C156.065 244.82 153.405 245.06 150.565 245.06C147.005 245.06 144.385 244.46 142.705 243.26C141.065 242.06 140.045 240.62 139.645 238.94C139.285 237.22 139.105 234.98 139.105 232.22C139.105 229.26 139.225 226.36 139.465 223.52C139.705 220.64 140.125 216.98 140.725 212.54C141.005 210.62 141.765 209.24 143.005 208.4C144.245 207.52 145.605 207.08 147.085 207.08C148.325 207.08 150.345 207.04 153.145 206.96L158.365 206.9C160.525 206.9 162.085 206.96 163.045 207.08C164.245 207.32 165.125 207.6 165.685 207.92C166.285 208.2 166.585 208.7 166.585 209.42C166.585 210.22 166.305 211 165.745 211.76C165.225 212.52 164.425 212.9 163.345 212.9C162.105 212.9 160.325 212.82 158.005 212.66C155.685 212.5 153.945 212.42 152.785 212.42C151.785 212.42 150.805 212.48 149.845 212.6C148.725 212.68 147.925 212.82 147.445 213.02C146.965 213.22 146.685 213.56 146.605 214.04C146.045 218.16 145.765 221.2 145.765 223.16C146.685 223.28 147.585 223.34 148.465 223.34C149.585 223.34 150.785 223.28 152.065 223.16C153.345 223.04 154.165 222.96 154.525 222.92C156.645 222.72 158.465 222.62 159.985 222.62C160.865 222.62 161.525 222.78 161.965 223.1C162.445 223.42 162.685 223.86 162.685 224.42C162.685 225.3 162.445 225.98 161.965 226.46C161.525 226.94 160.725 227.3 159.565 227.54C158.165 227.82 156.425 228.04 154.345 228.2C152.305 228.36 150.305 228.44 148.345 228.44C147.665 228.44 146.725 228.4 145.525 228.32C145.405 230.76 145.345 233.02 145.345 235.1C145.345 237.94 147.225 239.36 150.985 239.36C152.985 239.36 154.645 239.22 155.965 238.94C157.285 238.66 158.805 238.26 160.525 237.74C162.125 237.14 163.405 236.84 164.365 236.84Z" fill="#391585"/>
<path d="M176.231 208.7C177.711 213.1 179.391 217.94 181.271 223.22C183.151 228.46 184.871 233 186.431 236.84C187.591 233.12 189.191 228.66 191.231 223.46C193.271 218.22 195.171 213.5 196.931 209.3C197.451 208.06 198.331 207.44 199.571 207.44C200.731 207.44 201.611 207.68 202.211 208.16C202.811 208.6 203.111 209.38 203.111 210.5C203.111 210.94 203.051 211.32 202.931 211.64C202.811 211.96 202.631 212.38 202.391 212.9C201.151 215.34 199.911 218.16 198.671 221.36C197.431 224.52 195.911 228.54 194.111 233.42C194.191 233.22 193.631 234.72 192.431 237.92L190.451 243.08C190.211 243.72 189.811 244.22 189.251 244.58C188.731 244.9 188.131 245.06 187.451 245.06C186.771 245.06 186.011 244.9 185.171 244.58C184.371 244.22 183.791 243.86 183.431 243.5C182.071 240.9 180.331 237.14 178.211 232.22C176.131 227.3 174.331 222.76 172.811 218.6L171.911 216.14C171.311 214.46 170.871 213.18 170.591 212.3C170.311 211.38 170.171 210.64 170.171 210.08C170.171 209.28 170.611 208.64 171.491 208.16C172.411 207.68 173.291 207.44 174.131 207.44C174.571 207.44 174.991 207.54 175.391 207.74C175.791 207.94 176.071 208.26 176.231 208.7Z" fill="#391585"/>
<path d="M248.439 233.06C248.439 233.9 247.999 234.68 247.119 235.4C246.279 236.12 245.259 236.68 244.059 237.08C243.779 237.16 242.119 237.76 239.079 238.88C233.679 240.96 229.739 242.38 227.259 243.14C226.379 243.38 225.599 243.66 224.919 243.98C223.759 244.42 222.939 244.64 222.459 244.64C221.779 244.64 221.159 244.34 220.599 243.74C220.039 243.1 219.759 242.4 219.759 241.64C219.759 241.04 219.939 240.46 220.299 239.9C220.659 239.3 221.239 238.88 222.039 238.64C222.759 238.4 224.259 237.96 226.539 237.32C229.619 236.44 232.239 235.68 234.399 235.04C236.559 234.36 238.699 233.62 240.819 232.82L232.899 229.52L224.259 225.86C223.899 225.66 223.339 225.36 222.579 224.96C221.819 224.56 221.279 224.14 220.959 223.7C220.639 223.26 220.479 222.72 220.479 222.08C220.479 221.32 220.679 220.66 221.079 220.1C221.479 219.54 222.059 219.26 222.819 219.26C223.499 219.26 224.119 219.38 224.679 219.62C225.239 219.82 226.059 220.18 227.139 220.7C228.059 221.22 228.659 221.54 228.939 221.66L243.699 228.56C245.259 229.16 246.439 229.78 247.239 230.42C248.039 231.06 248.439 231.94 248.439 233.06Z" fill="#391585"/>
</svg>
