<svg width="342" height="342" viewBox="0 0 342 342" fill="none" xmlns="http://www.w3.org/2000/svg">
<path d="M342 171C342 265.441 265.441 342 171 342C76.5593 342 0 265.441 0 171C0 76.5593 76.5593 0 171 0C265.441 0 342 76.5593 342 171Z" fill="black"/>
<path d="M90.86 171.06C90.86 169.94 91.26 169.06 92.06 168.42C92.9 167.78 94.1 167.16 95.66 166.56L107.12 161.16C109.32 160.16 110.4 159.66 110.36 159.66L112.28 158.7C113.16 158.22 113.9 157.86 114.5 157.62C115.14 157.38 115.82 157.26 116.54 157.26C117.3 157.26 117.88 157.54 118.28 158.1C118.68 158.66 118.88 159.32 118.88 160.08C118.88 160.88 118.66 161.48 118.22 161.88C117.82 162.28 117.28 162.66 116.6 163.02C115.96 163.38 115.46 163.66 115.1 163.86L106.46 167.52L98.54 170.82C100.66 171.62 102.8 172.36 104.96 173.04C107.12 173.68 109.74 174.44 112.82 175.32C115.1 175.96 116.6 176.4 117.32 176.64C118.08 176.88 118.64 177.3 119 177.9C119.36 178.46 119.54 179.04 119.54 179.64C119.54 180.44 119.26 181.14 118.7 181.74C118.18 182.34 117.56 182.64 116.84 182.64C116.28 182.64 115.46 182.4 114.38 181.92C113.26 181.52 112.5 181.26 112.1 181.14C109.1 180.26 105.04 178.8 99.92 176.76C99.08 176.44 98.24 176.14 97.4 175.86C96.6 175.54 95.9 175.28 95.3 175.08C94.1 174.68 93.06 174.12 92.18 173.4C91.3 172.68 90.86 171.9 90.86 171.06Z" fill="#2B8B3E"/>
<path d="M136.125 148.02C136.125 146.3 137.385 145.44 139.905 145.44C140.985 145.44 143.045 145.48 146.085 145.56C149.445 145.72 151.985 145.8 153.705 145.8C155.105 145.8 156.805 145.72 158.805 145.56C160.165 145.48 161.025 145.44 161.385 145.44C163.585 145.52 165.445 145.92 166.965 146.64C167.405 146.84 167.765 147.08 168.045 147.36C168.325 147.64 168.465 148.1 168.465 148.74C168.465 149.62 168.185 150.38 167.625 151.02C167.065 151.62 166.385 151.92 165.585 151.92C164.705 151.92 163.425 151.8 161.745 151.56C160.265 151.28 158.965 151.14 157.845 151.14C156.765 151.14 155.945 151.16 155.385 151.2C155.265 152.52 155.205 155.68 155.205 160.68C155.205 166.64 155.385 172.68 155.745 178.8L155.865 180.54C155.865 182.18 154.925 183 153.045 183C151.565 183 150.565 182.66 150.045 181.98C149.525 181.26 149.265 180.18 149.265 178.74C149.265 175.9 149.185 172.36 149.025 168.12C148.865 164.6 148.785 162.1 148.785 160.62C148.785 159.62 148.905 156.56 149.145 151.44L142.125 151.5C139.885 151.5 138.325 151.3 137.445 150.9C136.565 150.46 136.125 149.5 136.125 148.02Z" fill="#2B8B3E"/>
<path d="M199.878 161.52C199.838 160.88 199.818 159.92 199.818 158.64V156.36C199.818 154.84 199.778 153.7 199.698 152.94C199.618 152.3 199.578 150.64 199.578 147.96C199.578 147 199.858 146.26 200.418 145.74C201.018 145.18 201.818 144.9 202.818 144.9C204.098 144.9 204.958 145.18 205.398 145.74C205.838 146.3 206.058 147.22 206.058 148.5V150.78L205.998 157.38C205.958 158.66 205.938 160.58 205.938 163.14L205.998 168.06C206.038 168.82 206.058 169.88 206.058 171.24C206.058 172.32 206.098 173.86 206.178 175.86C206.258 177.7 206.298 179.08 206.298 180C206.298 180.76 206.078 181.46 205.638 182.1C205.238 182.74 204.678 183.06 203.958 183.06C201.158 183.06 199.758 182.12 199.758 180.24C199.758 179.2 199.798 178.04 199.878 176.76C199.958 175.84 199.998 174.44 199.998 172.56C199.998 171.24 199.958 169.34 199.878 166.86C197.998 167.02 194.758 167.1 190.158 167.1C187.278 167.1 185.038 167.1 183.438 167.1C181.838 167.06 180.678 166.96 179.958 166.8L179.898 173.7C179.898 174.14 179.998 175.32 180.198 177.24C180.398 178.52 180.498 179.64 180.498 180.6C180.498 181.2 180.138 181.78 179.418 182.34C178.738 182.86 178.098 183.12 177.498 183.12C176.058 183.12 175.078 182.78 174.558 182.1C174.038 181.38 173.778 180.3 173.778 178.86L173.718 174.12C173.678 173.56 173.658 172.78 173.658 171.78C173.658 170.3 173.618 168.28 173.538 165.72C173.458 163.4 173.418 161.72 173.418 160.68C173.418 159.12 173.458 156.94 173.538 154.14C173.618 151.5 173.658 149.54 173.658 148.26C173.658 146.98 173.978 146.12 174.618 145.68C175.258 145.24 175.978 145.02 176.778 145.02C179.018 145.02 180.138 145.76 180.138 147.24C180.138 149.88 180.078 152.4 179.958 154.8C179.878 157.84 179.838 160.06 179.838 161.46C180.998 161.74 182.218 161.92 183.498 162C184.778 162.08 186.578 162.12 188.898 162.12C193.618 162.12 197.278 161.92 199.878 161.52Z" fill="#2B8B3E"/>
<path d="M239.561 174.84C240.321 174.84 240.881 175.14 241.241 175.74C241.641 176.3 241.841 176.92 241.841 177.6C241.841 178.44 241.701 179.04 241.421 179.4C241.181 179.72 240.701 180.06 239.981 180.42C238.301 181.22 236.221 181.86 233.741 182.34C231.261 182.82 228.601 183.06 225.761 183.06C222.201 183.06 219.581 182.46 217.901 181.26C216.261 180.06 215.241 178.62 214.841 176.94C214.481 175.22 214.301 172.98 214.301 170.22C214.301 167.26 214.421 164.36 214.661 161.52C214.901 158.64 215.321 154.98 215.921 150.54C216.201 148.62 216.961 147.24 218.201 146.4C219.441 145.52 220.801 145.08 222.281 145.08C223.521 145.08 225.541 145.04 228.341 144.96L233.561 144.9C235.721 144.9 237.281 144.96 238.241 145.08C239.441 145.32 240.321 145.6 240.881 145.92C241.481 146.2 241.781 146.7 241.781 147.42C241.781 148.22 241.501 149 240.941 149.76C240.421 150.52 239.621 150.9 238.541 150.9C237.301 150.9 235.521 150.82 233.201 150.66C230.881 150.5 229.141 150.42 227.981 150.42C226.981 150.42 226.001 150.48 225.041 150.6C223.921 150.68 223.121 150.82 222.641 151.02C222.161 151.22 221.881 151.56 221.801 152.04C221.241 156.16 220.961 159.2 220.961 161.16C221.881 161.28 222.781 161.34 223.661 161.34C224.781 161.34 225.981 161.28 227.261 161.16C228.541 161.04 229.361 160.96 229.721 160.92C231.841 160.72 233.661 160.62 235.181 160.62C236.061 160.62 236.721 160.78 237.161 161.1C237.641 161.42 237.881 161.86 237.881 162.42C237.881 163.3 237.641 163.98 237.161 164.46C236.721 164.94 235.921 165.3 234.761 165.54C233.361 165.82 231.621 166.04 229.541 166.2C227.501 166.36 225.501 166.44 223.541 166.44C222.861 166.44 221.921 166.4 220.721 166.32C220.601 168.76 220.541 171.02 220.541 173.1C220.541 175.94 222.421 177.36 226.181 177.36C228.181 177.36 229.841 177.22 231.161 176.94C232.481 176.66 234.001 176.26 235.721 175.74C237.321 175.14 238.601 174.84 239.561 174.84Z" fill="#2B8B3E"/>
<path d="M279.663 144.48C280.303 144.48 280.823 144.66 281.223 145.02C281.623 145.34 281.823 145.74 281.823 146.22C281.823 146.66 281.723 147.06 281.523 147.42C280.203 149.5 279.063 151.44 278.103 153.24C277.143 155.04 275.943 157.38 274.503 160.26C273.943 161.38 273.043 163.16 271.803 165.6C271.203 166.76 270.343 168.66 269.223 171.3C267.583 174.98 266.243 177.78 265.203 179.7C263.963 182.1 262.543 183.3 260.943 183.3C258.903 183.3 257.883 182.58 257.883 181.14C257.883 180.58 258.063 180.06 258.423 179.58C260.583 176.42 262.423 173.36 263.943 170.4C265.503 167.4 267.183 163.9 268.983 159.9C271.023 155.34 272.743 151.78 274.143 149.22C274.823 147.86 275.543 146.74 276.303 145.86C277.103 144.94 278.223 144.48 279.663 144.48Z" fill="#2B8B3E"/>
<path d="M313.557 171.06C313.557 171.9 313.117 172.68 312.237 173.4C311.397 174.12 310.377 174.68 309.177 175.08C308.897 175.16 307.237 175.76 304.197 176.88C298.797 178.96 294.857 180.38 292.377 181.14C291.497 181.38 290.717 181.66 290.037 181.98C288.877 182.42 288.057 182.64 287.577 182.64C286.897 182.64 286.277 182.34 285.717 181.74C285.157 181.1 284.877 180.4 284.877 179.64C284.877 179.04 285.057 178.46 285.417 177.9C285.777 177.3 286.357 176.88 287.157 176.64C287.877 176.4 289.377 175.96 291.657 175.32C294.737 174.44 297.357 173.68 299.517 173.04C301.677 172.36 303.817 171.62 305.937 170.82L298.017 167.52L289.377 163.86C289.017 163.66 288.457 163.36 287.697 162.96C286.937 162.56 286.397 162.14 286.077 161.7C285.757 161.26 285.597 160.72 285.597 160.08C285.597 159.32 285.797 158.66 286.197 158.1C286.597 157.54 287.177 157.26 287.937 157.26C288.617 157.26 289.237 157.38 289.797 157.62C290.357 157.82 291.177 158.18 292.257 158.7C293.177 159.22 293.777 159.54 294.057 159.66L308.817 166.56C310.377 167.16 311.557 167.78 312.357 168.42C313.157 169.06 313.557 169.94 313.557 171.06Z" fill="#2B8B3E"/>
<path d="M59.86 98.06C59.86 96.94 60.26 96.06 61.06 95.42C61.9 94.78 63.1 94.16 64.66 93.56L76.12 88.16C78.32 87.16 79.4 86.66 79.36 86.66L81.28 85.7C82.16 85.22 82.9 84.86 83.5 84.62C84.14 84.38 84.82 84.26 85.54 84.26C86.3 84.26 86.88 84.54 87.28 85.1C87.68 85.66 87.88 86.32 87.88 87.08C87.88 87.88 87.66 88.48 87.22 88.88C86.82 89.28 86.28 89.66 85.6 90.02C84.96 90.38 84.46 90.66 84.1 90.86L75.46 94.52L67.54 97.82C69.66 98.62 71.8 99.36 73.96 100.04C76.12 100.68 78.74 101.44 81.82 102.32C84.1 102.96 85.6 103.4 86.32 103.64C87.08 103.88 87.64 104.3 88 104.9C88.36 105.46 88.54 106.04 88.54 106.64C88.54 107.44 88.26 108.14 87.7 108.74C87.18 109.34 86.56 109.64 85.84 109.64C85.28 109.64 84.46 109.4 83.38 108.92C82.26 108.52 81.5 108.26 81.1 108.14C78.1 107.26 74.04 105.8 68.92 103.76C68.08 103.44 67.24 103.14 66.4 102.86C65.6 102.54 64.9 102.28 64.3 102.08C63.1 101.68 62.06 101.12 61.18 100.4C60.3 99.68 59.86 98.9 59.86 98.06Z" fill="#391585"/>
<path d="M117.365 71.96C122.805 71.96 127.105 72.72 130.265 74.24C133.465 75.72 135.885 77.38 137.525 79.22C138.845 80.74 139.925 82.5 140.765 84.5C141.605 86.46 142.025 88.82 142.025 91.58C142.025 93.62 141.565 95.76 140.645 98C139.725 100.2 138.525 101.98 137.045 103.34C135.485 104.82 134.005 106.02 132.605 106.94C131.245 107.86 129.385 108.62 127.025 109.22C124.705 109.78 121.745 110.06 118.145 110.06C115.425 110.06 112.965 109.76 110.765 109.16C108.565 108.52 107.465 107.46 107.465 105.98C107.465 105.38 107.725 104.92 108.245 104.6C108.805 104.24 109.405 104.06 110.045 104.06C110.405 104.06 110.645 104.08 110.765 104.12C111.045 101.48 111.185 98.68 111.185 95.72C111.185 92.4 111.105 89.66 110.945 87.5C110.785 85.3 110.565 83.12 110.285 80.96C110.245 80.68 110.145 79.9 109.985 78.62C109.865 77.34 109.805 76.04 109.805 74.72C109.805 73.88 110.225 73.18 111.065 72.62C111.905 72.02 112.765 71.72 113.645 71.72C114.165 71.72 114.865 71.76 115.745 71.84C116.465 71.92 117.005 71.96 117.365 71.96ZM116.585 104.42C117.545 104.58 118.805 104.66 120.365 104.66C123.005 104.66 125.505 104.12 127.865 103.04C130.225 101.92 132.125 100.38 133.565 98.42C135.005 96.42 135.725 94.12 135.725 91.52C135.725 88.8 135.245 86.48 134.285 84.56C133.325 82.64 131.845 81.06 129.845 79.82C128.365 78.9 126.545 78.24 124.385 77.84C122.225 77.4 119.625 77.18 116.585 77.18C116.585 78.14 116.645 79.34 116.765 80.78C116.765 81.26 116.805 82.1 116.885 83.3C117.125 87.94 117.245 91.68 117.245 94.52C117.245 98.64 117.025 101.94 116.585 104.42Z" fill="#391585"/>
<path d="M173.111 101.84C173.871 101.84 174.431 102.14 174.791 102.74C175.191 103.3 175.391 103.92 175.391 104.6C175.391 105.44 175.251 106.04 174.971 106.4C174.731 106.72 174.251 107.06 173.531 107.42C171.851 108.22 169.771 108.86 167.291 109.34C164.811 109.82 162.151 110.06 159.311 110.06C155.751 110.06 153.131 109.46 151.451 108.26C149.811 107.06 148.791 105.62 148.391 103.94C148.031 102.22 147.851 99.98 147.851 97.22C147.851 94.26 147.971 91.36 148.211 88.52C148.451 85.64 148.871 81.98 149.471 77.54C149.751 75.62 150.511 74.24 151.751 73.4C152.991 72.52 154.351 72.08 155.831 72.08C157.071 72.08 159.091 72.04 161.891 71.96L167.111 71.9C169.271 71.9 170.831 71.96 171.791 72.08C172.991 72.32 173.871 72.6 174.431 72.92C175.031 73.2 175.331 73.7 175.331 74.42C175.331 75.22 175.051 76 174.491 76.76C173.971 77.52 173.171 77.9 172.091 77.9C170.851 77.9 169.071 77.82 166.751 77.66C164.431 77.5 162.691 77.42 161.531 77.42C160.531 77.42 159.551 77.48 158.591 77.6C157.471 77.68 156.671 77.82 156.191 78.02C155.711 78.22 155.431 78.56 155.351 79.04C154.791 83.16 154.511 86.2 154.511 88.16C155.431 88.28 156.331 88.34 157.211 88.34C158.331 88.34 159.531 88.28 160.811 88.16C162.091 88.04 162.911 87.96 163.271 87.92C165.391 87.72 167.211 87.62 168.731 87.62C169.611 87.62 170.271 87.78 170.711 88.1C171.191 88.42 171.431 88.86 171.431 89.42C171.431 90.3 171.191 90.98 170.711 91.46C170.271 91.94 169.471 92.3 168.311 92.54C166.911 92.82 165.171 93.04 163.091 93.2C161.051 93.36 159.051 93.44 157.091 93.44C156.411 93.44 155.471 93.4 154.271 93.32C154.151 95.76 154.091 98.02 154.091 100.1C154.091 102.94 155.971 104.36 159.731 104.36C161.731 104.36 163.391 104.22 164.711 103.94C166.031 103.66 167.551 103.26 169.271 102.74C170.871 102.14 172.151 101.84 173.111 101.84Z" fill="#391585"/>
<path d="M184.977 73.7C186.457 78.1 188.137 82.94 190.017 88.22C191.897 93.46 193.617 98 195.177 101.84C196.337 98.12 197.937 93.66 199.977 88.46C202.017 83.22 203.917 78.5 205.677 74.3C206.197 73.06 207.077 72.44 208.317 72.44C209.477 72.44 210.357 72.68 210.957 73.16C211.557 73.6 211.857 74.38 211.857 75.5C211.857 75.94 211.797 76.32 211.677 76.64C211.557 76.96 211.377 77.38 211.137 77.9C209.897 80.34 208.657 83.16 207.417 86.36C206.177 89.52 204.657 93.54 202.857 98.42C202.937 98.22 202.377 99.72 201.177 102.92L199.197 108.08C198.957 108.72 198.557 109.22 197.997 109.58C197.477 109.9 196.877 110.06 196.197 110.06C195.517 110.06 194.757 109.9 193.917 109.58C193.117 109.22 192.537 108.86 192.177 108.5C190.817 105.9 189.077 102.14 186.957 97.22C184.877 92.3 183.077 87.76 181.557 83.6L180.657 81.14C180.057 79.46 179.617 78.18 179.337 77.3C179.057 76.38 178.917 75.64 178.917 75.08C178.917 74.28 179.357 73.64 180.237 73.16C181.157 72.68 182.037 72.44 182.877 72.44C183.317 72.44 183.737 72.54 184.137 72.74C184.537 72.94 184.817 73.26 184.977 73.7Z" fill="#391585"/>
<path d="M257.185 98.06C257.185 98.9 256.745 99.68 255.865 100.4C255.025 101.12 254.005 101.68 252.805 102.08C252.525 102.16 250.865 102.76 247.825 103.88C242.425 105.96 238.485 107.38 236.005 108.14C235.125 108.38 234.345 108.66 233.665 108.98C232.505 109.42 231.685 109.64 231.205 109.64C230.525 109.64 229.905 109.34 229.345 108.74C228.785 108.1 228.505 107.4 228.505 106.64C228.505 106.04 228.685 105.46 229.045 104.9C229.405 104.3 229.985 103.88 230.785 103.64C231.505 103.4 233.005 102.96 235.285 102.32C238.365 101.44 240.985 100.68 243.145 100.04C245.305 99.36 247.445 98.62 249.565 97.82L241.645 94.52L233.005 90.86C232.645 90.66 232.085 90.36 231.325 89.96C230.565 89.56 230.025 89.14 229.705 88.7C229.385 88.26 229.225 87.72 229.225 87.08C229.225 86.32 229.425 85.66 229.825 85.1C230.225 84.54 230.805 84.26 231.565 84.26C232.245 84.26 232.865 84.38 233.425 84.62C233.985 84.82 234.805 85.18 235.885 85.7C236.805 86.22 237.405 86.54 237.685 86.66L252.445 93.56C254.005 94.16 255.185 94.78 255.985 95.42C256.785 96.06 257.185 96.94 257.185 98.06Z" fill="#391585"/>
<path d="M59.86 245.06C59.86 243.94 60.26 243.06 61.06 242.42C61.9 241.78 63.1 241.16 64.66 240.56L76.12 235.16C78.32 234.16 79.4 233.66 79.36 233.66L81.28 232.7C82.16 232.22 82.9 231.86 83.5 231.62C84.14 231.38 84.82 231.26 85.54 231.26C86.3 231.26 86.88 231.54 87.28 232.1C87.68 232.66 87.88 233.32 87.88 234.08C87.88 234.88 87.66 235.48 87.22 235.88C86.82 236.28 86.28 236.66 85.6 237.02C84.96 237.38 84.46 237.66 84.1 237.86L75.46 241.52L67.54 244.82C69.66 245.62 71.8 246.36 73.96 247.04C76.12 247.68 78.74 248.44 81.82 249.32C84.1 249.96 85.6 250.4 86.32 250.64C87.08 250.88 87.64 251.3 88 251.9C88.36 252.46 88.54 253.04 88.54 253.64C88.54 254.44 88.26 255.14 87.7 255.74C87.18 256.34 86.56 256.64 85.84 256.64C85.28 256.64 84.46 256.4 83.38 255.92C82.26 255.52 81.5 255.26 81.1 255.14C78.1 254.26 74.04 252.8 68.92 250.76C68.08 250.44 67.24 250.14 66.4 249.86C65.6 249.54 64.9 249.28 64.3 249.08C63.1 248.68 62.06 248.12 61.18 247.4C60.3 246.68 59.86 245.9 59.86 245.06Z" fill="#391585"/>
<path d="M113.428 218.48C114.068 218.48 114.588 218.66 114.988 219.02C115.388 219.34 115.588 219.74 115.588 220.22C115.588 220.66 115.488 221.06 115.288 221.42C113.968 223.5 112.828 225.44 111.868 227.24C110.908 229.04 109.708 231.38 108.268 234.26C107.708 235.38 106.808 237.16 105.568 239.6C104.968 240.76 104.108 242.66 102.988 245.3C101.348 248.98 100.008 251.78 98.9683 253.7C97.7283 256.1 96.3083 257.3 94.7083 257.3C92.6683 257.3 91.6483 256.58 91.6483 255.14C91.6483 254.58 91.8283 254.06 92.1883 253.58C94.3483 250.42 96.1883 247.36 97.7083 244.4C99.2683 241.4 100.948 237.9 102.748 233.9C104.788 229.34 106.508 225.78 107.908 223.22C108.588 221.86 109.308 220.74 110.068 219.86C110.868 218.94 111.988 218.48 113.428 218.48Z" fill="#391585"/>
<path d="M142.619 218.96C148.059 218.96 152.359 219.72 155.519 221.24C158.719 222.72 161.139 224.38 162.779 226.22C164.099 227.74 165.179 229.5 166.019 231.5C166.859 233.46 167.279 235.82 167.279 238.58C167.279 240.62 166.819 242.76 165.899 245C164.979 247.2 163.779 248.98 162.299 250.34C160.739 251.82 159.259 253.02 157.859 253.94C156.499 254.86 154.639 255.62 152.279 256.22C149.959 256.78 146.999 257.06 143.399 257.06C140.679 257.06 138.219 256.76 136.019 256.16C133.819 255.52 132.719 254.46 132.719 252.98C132.719 252.38 132.979 251.92 133.499 251.6C134.059 251.24 134.659 251.06 135.299 251.06C135.659 251.06 135.899 251.08 136.019 251.12C136.299 248.48 136.439 245.68 136.439 242.72C136.439 239.4 136.359 236.66 136.199 234.5C136.039 232.3 135.819 230.12 135.539 227.96C135.499 227.68 135.399 226.9 135.239 225.62C135.119 224.34 135.059 223.04 135.059 221.72C135.059 220.88 135.479 220.18 136.319 219.62C137.159 219.02 138.019 218.72 138.899 218.72C139.419 218.72 140.119 218.76 140.999 218.84C141.719 218.92 142.259 218.96 142.619 218.96ZM141.839 251.42C142.799 251.58 144.059 251.66 145.619 251.66C148.259 251.66 150.759 251.12 153.119 250.04C155.479 248.92 157.379 247.38 158.819 245.42C160.259 243.42 160.979 241.12 160.979 238.52C160.979 235.8 160.499 233.48 159.539 231.56C158.579 229.64 157.099 228.06 155.099 226.82C153.619 225.9 151.799 225.24 149.639 224.84C147.479 224.4 144.879 224.18 141.839 224.18C141.839 225.14 141.899 226.34 142.019 227.78C142.019 228.26 142.059 229.1 142.139 230.3C142.379 234.94 142.499 238.68 142.499 241.52C142.499 245.64 142.279 248.94 141.839 251.42Z" fill="#391585"/>
<path d="M198.365 248.84C199.125 248.84 199.685 249.14 200.045 249.74C200.445 250.3 200.645 250.92 200.645 251.6C200.645 252.44 200.505 253.04 200.225 253.4C199.985 253.72 199.505 254.06 198.785 254.42C197.105 255.22 195.025 255.86 192.545 256.34C190.065 256.82 187.405 257.06 184.565 257.06C181.005 257.06 178.385 256.46 176.705 255.26C175.065 254.06 174.045 252.62 173.645 250.94C173.285 249.22 173.105 246.98 173.105 244.22C173.105 241.26 173.225 238.36 173.465 235.52C173.705 232.64 174.125 228.98 174.725 224.54C175.005 222.62 175.765 221.24 177.005 220.4C178.245 219.52 179.605 219.08 181.085 219.08C182.325 219.08 184.345 219.04 187.145 218.96L192.365 218.9C194.525 218.9 196.085 218.96 197.045 219.08C198.245 219.32 199.125 219.6 199.685 219.92C200.285 220.2 200.585 220.7 200.585 221.42C200.585 222.22 200.305 223 199.745 223.76C199.225 224.52 198.425 224.9 197.345 224.9C196.105 224.9 194.325 224.82 192.005 224.66C189.685 224.5 187.945 224.42 186.785 224.42C185.785 224.42 184.805 224.48 183.845 224.6C182.725 224.68 181.925 224.82 181.445 225.02C180.965 225.22 180.685 225.56 180.605 226.04C180.045 230.16 179.765 233.2 179.765 235.16C180.685 235.28 181.585 235.34 182.465 235.34C183.585 235.34 184.785 235.28 186.065 235.16C187.345 235.04 188.165 234.96 188.525 234.92C190.645 234.72 192.465 234.62 193.985 234.62C194.865 234.62 195.525 234.78 195.965 235.1C196.445 235.42 196.685 235.86 196.685 236.42C196.685 237.3 196.445 237.98 195.965 238.46C195.525 238.94 194.725 239.3 193.565 239.54C192.165 239.82 190.425 240.04 188.345 240.2C186.305 240.36 184.305 240.44 182.345 240.44C181.665 240.44 180.725 240.4 179.525 240.32C179.405 242.76 179.345 245.02 179.345 247.1C179.345 249.94 181.225 251.36 184.985 251.36C186.985 251.36 188.645 251.22 189.965 250.94C191.285 250.66 192.805 250.26 194.525 249.74C196.125 249.14 197.405 248.84 198.365 248.84Z" fill="#391585"/>
<path d="M210.231 220.7C211.711 225.1 213.391 229.94 215.271 235.22C217.151 240.46 218.871 245 220.431 248.84C221.591 245.12 223.191 240.66 225.231 235.46C227.271 230.22 229.171 225.5 230.931 221.3C231.451 220.06 232.331 219.44 233.571 219.44C234.731 219.44 235.611 219.68 236.211 220.16C236.811 220.6 237.111 221.38 237.111 222.5C237.111 222.94 237.051 223.32 236.931 223.64C236.811 223.96 236.631 224.38 236.391 224.9C235.151 227.34 233.911 230.16 232.671 233.36C231.431 236.52 229.911 240.54 228.111 245.42C228.191 245.22 227.631 246.72 226.431 249.92L224.451 255.08C224.211 255.72 223.811 256.22 223.251 256.58C222.731 256.9 222.131 257.06 221.451 257.06C220.771 257.06 220.011 256.9 219.171 256.58C218.371 256.22 217.791 255.86 217.431 255.5C216.071 252.9 214.331 249.14 212.211 244.22C210.131 239.3 208.331 234.76 206.811 230.6L205.911 228.14C205.311 226.46 204.871 225.18 204.591 224.3C204.311 223.38 204.171 222.64 204.171 222.08C204.171 221.28 204.611 220.64 205.491 220.16C206.411 219.68 207.291 219.44 208.131 219.44C208.571 219.44 208.991 219.54 209.391 219.74C209.791 219.94 210.071 220.26 210.231 220.7Z" fill="#391585"/>
<path d="M282.439 245.06C282.439 245.9 281.999 246.68 281.119 247.4C280.279 248.12 279.259 248.68 278.059 249.08C277.779 249.16 276.119 249.76 273.079 250.88C267.679 252.96 263.739 254.38 261.259 255.14C260.379 255.38 259.599 255.66 258.919 255.98C257.759 256.42 256.939 256.64 256.459 256.64C255.779 256.64 255.159 256.34 254.599 255.74C254.039 255.1 253.759 254.4 253.759 253.64C253.759 253.04 253.939 252.46 254.299 251.9C254.659 251.3 255.239 250.88 256.039 250.64C256.759 250.4 258.259 249.96 260.539 249.32C263.619 248.44 266.239 247.68 268.399 247.04C270.559 246.36 272.699 245.62 274.819 244.82L266.899 241.52L258.259 237.86C257.899 237.66 257.339 237.36 256.579 236.96C255.819 236.56 255.279 236.14 254.959 235.7C254.639 235.26 254.479 234.72 254.479 234.08C254.479 233.32 254.679 232.66 255.079 232.1C255.479 231.54 256.059 231.26 256.819 231.26C257.499 231.26 258.119 231.38 258.679 231.62C259.239 231.82 260.059 232.18 261.139 232.7C262.059 233.22 262.659 233.54 262.939 233.66L277.699 240.56C279.259 241.16 280.439 241.78 281.239 242.42C282.039 243.06 282.439 243.94 282.439 245.06Z" fill="#391585"/>
</svg>
